<svg xmlns="http://www.w3.org/2000/svg" width="26.782" height="26.783" viewBox="0 0 26.782 26.783">
  <path id="circletwitter" d="M13.391,26.783a13.136,13.136,0,0,1-5.2-1.059A13.1,13.1,0,0,1,1.059,18.6a13.315,13.315,0,0,1,0-10.409A13.1,13.1,0,0,1,8.187,1.059a13.315,13.315,0,0,1,10.409,0,13.1,13.1,0,0,1,7.127,7.127,13.315,13.315,0,0,1,0,10.409A13.1,13.1,0,0,1,18.6,25.723a13.136,13.136,0,0,1-5.2,1.059ZM21.264,6.7a4.835,4.835,0,0,0-.471.288l-.51.34-.484.262-.549.183A3.082,3.082,0,0,0,16.87,6.7q-3.06,0-3.06,2.563V10.8A8.273,8.273,0,0,1,7.35,7.716,2.112,2.112,0,0,0,6.7,9.207a2.98,2.98,0,0,0,1.282,2.616q-.157,0-.445.026a1.983,1.983,0,0,1-.458,0,1.311,1.311,0,0,1-.379-.131,3.093,3.093,0,0,0,.641,2A2.953,2.953,0,0,0,9.1,14.751a.9.9,0,0,1-.732.314,1.186,1.186,0,0,1-.732-.235,1.745,1.745,0,0,0,.981,1.582,4.562,4.562,0,0,0,2.21.588A2.836,2.836,0,0,1,9.455,18.06a5.214,5.214,0,0,1-1.922.353,3.934,3.934,0,0,1-1.007-.183q-.641-.183-.667-.183a3.418,3.418,0,0,0,1.713,1.439,7.792,7.792,0,0,0,3.282.6,8.629,8.629,0,0,0,3.27-.615,8.133,8.133,0,0,0,2.589-1.634,10.739,10.739,0,0,0,1.844-2.328A10.883,10.883,0,0,0,19.708,12.8a10.574,10.574,0,0,0,.379-2.759q0-.052.314-.222a8.439,8.439,0,0,0,.732-.458,2.314,2.314,0,0,0,.628-.6q-1.412,0-1.883.052a3.514,3.514,0,0,0,1.386-2.119Z" fill="#2a1503"/>
</svg>
