<svg xmlns="http://www.w3.org/2000/svg" width="26.782" height="26.783" viewBox="0 0 26.782 26.783">
  <path id="snapchat" d="M22.3,17.785a.441.441,0,0,0-.384-.471,4.665,4.665,0,0,1-2.058-1.029A5.377,5.377,0,0,1,18.465,14.4a1.682,1.682,0,0,1-.122-.436q0-.262.34-.453a3.08,3.08,0,0,1,.75-.3,2.136,2.136,0,0,0,.75-.357.764.764,0,0,0,.34-.637.645.645,0,0,0-.323-.549,1.188,1.188,0,0,0-.671-.219,1.605,1.605,0,0,0-.558.14,1.591,1.591,0,0,1-.541.14.947.947,0,0,1-.209-.035q.087-1.657.087-1.988a4.871,4.871,0,0,0-.3-1.988,4.916,4.916,0,0,0-1.8-2.119,4.754,4.754,0,0,0-2.651-.758A4.821,4.821,0,0,0,8.771,7.725a4.871,4.871,0,0,0-.3,1.988q0,.331.087,1.988a.6.6,0,0,1-.244.035,1.7,1.7,0,0,1-.558-.131,1.67,1.67,0,0,0-.523-.131,1.162,1.162,0,0,0-.671.209.647.647,0,0,0-.306.558.75.75,0,0,0,.34.619,2.119,2.119,0,0,0,.75.357,3.04,3.04,0,0,1,.75.3q.34.192.34.453a1.682,1.682,0,0,1-.122.436,4.83,4.83,0,0,1-3.453,2.912.441.441,0,0,0-.384.471q0,.8,2.389,1.186a3.412,3.412,0,0,1,.1.453,1.255,1.255,0,0,0,.2.532.49.49,0,0,0,.41.166,4.23,4.23,0,0,0,.654-.078,4.28,4.28,0,0,1,.689-.078,2.717,2.717,0,0,1,1.168.262,4.767,4.767,0,0,1,.942.567,4.322,4.322,0,0,0,1,.567,3.388,3.388,0,0,0,1.334.262,3.545,3.545,0,0,0,1.378-.262,4.085,4.085,0,0,0,1-.567,4.53,4.53,0,0,1,.931-.567,2.711,2.711,0,0,1,1.168-.262,4.762,4.762,0,0,1,.689.07,4.726,4.726,0,0,0,.671.07.455.455,0,0,0,.4-.174,1.412,1.412,0,0,0,.192-.523,3.375,3.375,0,0,1,.1-.436q2.389-.384,2.389-1.186Zm4.481-4.394a13.1,13.1,0,0,1-1.8,6.722,13.329,13.329,0,0,1-4.874,4.874,13.1,13.1,0,0,1-6.722,1.8,13.1,13.1,0,0,1-6.722-1.8A13.329,13.329,0,0,1,1.8,20.113,13.1,13.1,0,0,1,0,13.391,13.1,13.1,0,0,1,1.8,6.67,13.329,13.329,0,0,1,6.67,1.8,13.1,13.1,0,0,1,13.391,0a13.1,13.1,0,0,1,6.722,1.8A13.329,13.329,0,0,1,24.987,6.67,13.1,13.1,0,0,1,26.783,13.391Z" fill="#2a1503"/>
</svg>
