<svg xmlns="http://www.w3.org/2000/svg" width="27" height="27" viewBox="0 0 27 27">
  <path id="Subtraction_2" data-name="Subtraction 2" d="M13.5,27A13.5,13.5,0,0,1,3.955,3.953,13.5,13.5,0,0,1,23.047,23.045,13.409,13.409,0,0,1,13.5,27Zm0-21.652c-1.5,0-2.662.02-3.35.055A4.971,4.971,0,0,0,6.758,6.713a4.964,4.964,0,0,0-1.312,3.4c-.031.652-.047,1.809-.047,3.348s.016,2.7.047,3.348a4.964,4.964,0,0,0,1.313,3.4,4.972,4.972,0,0,0,3.395,1.311c.686.033,1.875.053,3.35.053s2.67-.02,3.348-.053a4.962,4.962,0,0,0,3.4-1.311,4.99,4.99,0,0,0,1.311-3.4c.035-.7.055-1.918.055-3.348s-.02-2.652-.055-3.348a4.99,4.99,0,0,0-1.311-3.4A4.96,4.96,0,0,0,16.85,5.4C16.17,5.367,15.014,5.348,13.5,5.348Zm1.924,14.77H14.311l-.217,0-.4-.006-.131,0h-.129l-.131,0-.408.006-.2,0H11.582c-.238,0-.545-.016-1.021-.031a8.921,8.921,0,0,1-1.086-.109,3.835,3.835,0,0,1-.758-.2,2.867,2.867,0,0,1-.928-.609,2.787,2.787,0,0,1-.607-.93,3.774,3.774,0,0,1-.2-.756A7.538,7.538,0,0,1,6.877,16.4c-.02-.459-.027-.783-.027-1.021s-.006-.621,0-1.107V12.648c-.006-.492-.006-.857,0-1.113,0-.234.008-.559.027-1.018a7.6,7.6,0,0,1,.107-1.086,3.7,3.7,0,0,1,.2-.756,2.653,2.653,0,0,1,.607-.93,2.8,2.8,0,0,1,.928-.609,4.183,4.183,0,0,1,.758-.2,8.889,8.889,0,0,1,1.086-.1c.371-.014.727-.025,1.021-.033H12.7c.492.006.74.006.8.006.1,0,.367,0,.809-.006h1.115c.275.008.605.018,1.016.033a7.9,7.9,0,0,1,1.086.109,3.6,3.6,0,0,1,.758.2,2.651,2.651,0,0,1,.928.609,2.87,2.87,0,0,1,.615.93,4.263,4.263,0,0,1,.193.756,7.491,7.491,0,0,1,.1,1.086c.014.369.025.732.035,1.018,0,.256,0,.621,0,1.113-.006.434-.008.713-.008.811,0,.113,0,.361.008.8,0,.49,0,.865,0,1.113s-.018.564-.035,1.021a7.338,7.338,0,0,1-.105,1.088,4.145,4.145,0,0,1-.191.756,2.809,2.809,0,0,1-.615.93,2.747,2.747,0,0,1-.928.609,3.721,3.721,0,0,1-.758.2,8.921,8.921,0,0,1-1.086.109C16.105,20.1,15.762,20.109,15.426,20.117ZM13.5,9.3a4.138,4.138,0,0,0-4.158,4.158A4.141,4.141,0,0,0,13.5,17.617a4.141,4.141,0,0,0,4.156-4.158A4.138,4.138,0,0,0,13.5,9.3Zm4.33-1.141a.96.96,0,0,0-.971.971.97.97,0,1,0,1.656-.689A.952.952,0,0,0,17.832,8.16Zm-4.33,8a2.7,2.7,0,0,1-1.908-4.615,2.711,2.711,0,0,1,3.82,0A2.7,2.7,0,0,1,13.5,16.16Z" fill="#2a1503"/>
</svg>
